<?xml version="1.0" encoding="UTF-8"?>
<svg id="Layer_9" data-name="Layer 9" xmlns="http://www.w3.org/2000/svg" xmlns:xlink="http://www.w3.org/1999/xlink" viewBox="0 0 1178.69 490.08">
  <defs>
    <style>
      .cls-1 {
        font-size: 226.38px;
        letter-spacing: .05em;
      }

      .cls-1, .cls-2 {
        font-family: Oswald-SemiBold, Oswald;
        font-weight: 600;
      }

      .cls-1, .cls-2, .cls-3 {
        fill: #fff;
      }

      .cls-2 {
        font-size: 68.69px;
      }

      .cls-4 {
        letter-spacing: .06em;
      }

      .cls-5 {
        clip-path: url(#clippath);
      }

      .cls-6 {
        letter-spacing: .05em;
      }

      .cls-7 {
        letter-spacing: .05em;
      }
    </style>
    <clipPath id="clippath">
      <path class="cls-3" d="M1.08,367.1l211.14,121.9,211.14-121.9V123.29L212.21,1.38,1.08,123.29v243.81ZM212.22,469.77L29.94,364.53h36.23l146.04,84.32,162.27-93.69-130.92-226.73,4.15-7.04,18.73,10.82.53.92,131.77,228.93-186.54,107.71ZM212.22,408.71l115.14-66.48-104.12-179.3,10.63-18.02,118.17,203.99-139.81,80.72-112.74-65.09h36.23l76.51,44.17ZM169.02,364.53h86.4l-43.2,24.95-43.2-24.95ZM70.61,163.44v130.95h209.47l10.52,18.15H52.5v-159.56l111.18-64.19-18.12,31.38-74.95,43.27ZM128.91,149.01l-41.64,72.12v-48.08l41.64-24.03ZM240.78,98.53l-103.66,178.93h-21.55l117.25-204.8,139.11,80.32v128.38l-18.11-31.38v-86.54l-113.05-64.91ZM337.17,173.05v48.09l-41.65-72.13,41.65,24.04ZM213.49,179.41l56.79,98.05h-113.58l56.79-98.05ZM219.87,25.03l186.84,107.87v208.67l-18.11-31.38v-166.84L227.26,50.25l-130.63,227.2h-9.35v-22.26l.52-.91L219.87,25.03ZM17.73,132.9L198.44,28.57l-18.11,31.38L35.84,143.36v186.1h264.56l3.95,6.82-19.62,11.32H17.73v-214.7Z"/>
    </clipPath>
  </defs>
  <text class="cls-1" transform="translate(507.48 300.1)"><tspan x="0" y="0">ALLIED</tspan></text>
  <text class="cls-2" transform="translate(508.48 385.39)"><tspan class="cls-4" x="0" y="0">BUSINE</tspan><tspan class="cls-7" x="227.01" y="0">S</tspan><tspan class="cls-4" x="264.99" y="0">S SO</tspan><tspan class="cls-6" x="407.86" y="0">L</tspan><tspan class="cls-4" x="440.9" y="0">UTIONS</tspan></text>
  <g>
    <path class="cls-3" d="M1.08,367.1l211.14,121.9,211.14-121.9V123.29L212.21,1.38,1.08,123.29v243.81ZM212.22,469.77L29.94,364.53h36.23l146.04,84.32,162.27-93.69-130.92-226.73,4.15-7.04,18.73,10.82.53.92,131.77,228.93-186.54,107.71ZM212.22,408.71l115.14-66.48-104.12-179.3,10.63-18.02,118.17,203.99-139.81,80.72-112.74-65.09h36.23l76.51,44.17ZM169.02,364.53h86.4l-43.2,24.95-43.2-24.95ZM70.61,163.44v130.95h209.47l10.52,18.15H52.5v-159.56l111.18-64.19-18.12,31.38-74.95,43.27ZM128.91,149.01l-41.64,72.12v-48.08l41.64-24.03ZM240.78,98.53l-103.66,178.93h-21.55l117.25-204.8,139.11,80.32v128.38l-18.11-31.38v-86.54l-113.05-64.91ZM337.17,173.05v48.09l-41.65-72.13,41.65,24.04ZM213.49,179.41l56.79,98.05h-113.58l56.79-98.05ZM219.87,25.03l186.84,107.87v208.67l-18.11-31.38v-166.84L227.26,50.25l-130.63,227.2h-9.35v-22.26l.52-.91L219.87,25.03ZM17.73,132.9L198.44,28.57l-18.11,31.38L35.84,143.36v186.1h264.56l3.95,6.82-19.62,11.32H17.73v-214.7Z"/>
    <g class="cls-5">
      <rect class="cls-3" x="-66.79" y="-63.57" width="532.8" height="570.15"/>
    </g>
  </g>
</svg>