<?xml version="1.0" encoding="UTF-8"?> <svg xmlns="http://www.w3.org/2000/svg" xmlns:xlink="http://www.w3.org/1999/xlink" version="1.1" id="Layer_1" x="0px" y="0px" viewBox="0 0 379.9 89.4" style="enable-background:new 0 0 379.9 89.4;" xml:space="preserve"> <style type="text/css"> .st0{fill:url(#SVGID_1_);} .st1{fill:url(#SVGID_2_);} .st2{fill:url(#SVGID_3_);} .st3{fill:#303030;} .st4{fill:url(#SVGID_4_);} .st5{fill:#FFFFFF;} .st6{fill:#9A9D9E;} .st7{fill:url(#SVGID_5_);} </style> <g> <g> <path d="M32.1,88.8"></path> <g> <g> <linearGradient id="SVGID_1_" gradientUnits="userSpaceOnUse" x1="31.8641" y1="23.1691" x2="62.2439" y2="23.1691"> <stop offset="0" style="stop-color:#9A959C"></stop> <stop offset="0.5225" style="stop-color:#F3F4F4"></stop> <stop offset="0.6185" style="stop-color:#E5E5E6"></stop> <stop offset="0.8027" style="stop-color:#BFBEC0"></stop> <stop offset="1" style="stop-color:#918E91"></stop> </linearGradient> <path class="st0" d="M61,44c1.9-11.1,1-22.2,1-33.3C42.3,10,31.9,2.3,31.9,2.3c0,0,0,0,0,0.1L32.1,44H61z"></path> </g> <g> <linearGradient id="SVGID_2_" gradientUnits="userSpaceOnUse" x1="4.8182" y1="65.7399" x2="32.4013" y2="65.7399"> <stop offset="0" style="stop-color:#9A959C"></stop> <stop offset="0.5225" style="stop-color:#F3F4F4"></stop> <stop offset="0.6185" style="stop-color:#E5E5E6"></stop> <stop offset="0.8027" style="stop-color:#BFBEC0"></stop> <stop offset="1" style="stop-color:#918E91"></stop> </linearGradient> <path class="st1" d="M4.8,44c1,4.8,2.4,9.7,4.4,14.3c1.9,4.5,4.3,8.8,7.1,12.7c4.5,6.4,9.2,12,15.6,16.4c0.1,0.1,0.3,0,0.5-0.1 L32.1,44H4.8z"></path> </g> <g> <linearGradient id="SVGID_3_" gradientUnits="userSpaceOnUse" x1="32.7699" y1="65.404" x2="60.2383" y2="65.404"> <stop offset="0" style="stop-color:#005371"></stop> <stop offset="0.1871" style="stop-color:#005674"></stop> <stop offset="0.3301" style="stop-color:#00607D"></stop> <stop offset="0.4581" style="stop-color:#00708D"></stop> <stop offset="0.5153" style="stop-color:#007A96"></stop> <stop offset="0.678" style="stop-color:#006683"></stop> <stop offset="0.8512" style="stop-color:#005876"></stop> <stop offset="1" style="stop-color:#005371"></stop> </linearGradient> <path class="st2" d="M32.8,44.5h27.5c0,0.2-0.1,0.4-0.1,0.5c-1.4,7-4,13.9-7.8,20.5c-3.8,6.5-8.4,12.1-13.8,16.8 c-0.4,0.4-3.6,2.7-5.4,3.8L32.8,44.5z"></path> <g> <path class="st3" d="M59.5,45.3c-1.4,0-4,13.6-7.7,20.1C48,71.7,43.4,77.3,38,82c-0.4,0.3-2.6,2-4.4,3.2l-0.3-39.9H59.5 M61,44 H32.1l0.3,43.4c1.6-0.7,6-4,6.5-4.4c5.6-4.8,10.3-10.6,14-17c3.7-6.4,6.5-13.4,7.9-20.7C60.8,44.8,60.9,44.4,61,44L61,44z"></path> </g> </g> <g> <linearGradient id="SVGID_4_" gradientUnits="userSpaceOnUse" x1="3.2269" y1="23.3796" x2="31.483" y2="23.3796"> <stop offset="0" style="stop-color:#005371"></stop> <stop offset="0.1871" style="stop-color:#005674"></stop> <stop offset="0.3301" style="stop-color:#00607D"></stop> <stop offset="0.4581" style="stop-color:#00708D"></stop> <stop offset="0.5153" style="stop-color:#007A96"></stop> <stop offset="0.678" style="stop-color:#006683"></stop> <stop offset="0.8512" style="stop-color:#005876"></stop> <stop offset="1" style="stop-color:#005371"></stop> </linearGradient> <path class="st4" d="M5.3,43.3c-0.3-1.5-0.5-3-0.7-4.5c-0.8-6.1-1-12.5-1.1-18.6c-0.1-2.5-0.1-5.2-0.2-7.7c0-0.1,0-0.2,0-0.3 c3-0.2,16-1.3,28-8.6l0.3,39.8H5.3z"></path> <path class="st3" d="M30.6,4.7l0.2,38h-25c-0.2-1.5-0.5-2.7-0.6-4c-0.8-6.1-1-12.4-1.1-18.6C4,17.7,4,15.2,3.9,12.7 c1.6-0.1,4.6-0.4,8.4-1.2C17,10.6,23.9,8.6,30.6,4.7 M31.9,2.4C18,11.3,2.6,11.5,2.6,11.5c0,0.3,0,0.6,0,0.9 C3,21.2,2.8,30.2,4,38.9c0.2,1.7,0.5,3.3,0.9,5.1h27.3L31.9,2.4L31.9,2.4z"></path> </g> </g> <g> <path class="st3" d="M32.6,78.1l-0.9-0.6c-0.2-0.2-5.1-4.2-10.6-13.5C16,55.5,10,41.1,10,17.9l0-0.7h44.8l0.1,0.6 c0,0.4,0.9,8.8-1.1,20.6c-1.9,10.9-7.6,26.7-20.4,39.1L32.6,78.1z"></path> </g> <g> <g> <path class="st5" d="M45.9,46.8c0,0.4-0.2,1.7-0.7,3.7c-0.5,2-0.9,3.1-1.2,3.3c-3.6,1.3-7.2,2-10.8,2c-4.2,0-7.8-1.6-10.8-4.7 c-3-3.1-4.5-6.8-4.5-11.1c0-4.5,1.5-8.4,4.5-11.7c3-3.2,6.8-4.9,11.3-4.9c3.5,0,7.1,0.5,11,1.4c0.2,0,0.4,1.1,0.6,3.2 c0.2,2.1,0.4,3.4,0.4,3.9c0,0.5-0.4,0.7-1.3,0.7c0,0-0.3,0-0.8-0.1c-0.2-0.6-0.4-1.2-0.8-1.8c-0.4-0.6-0.9-1.3-1.6-2.1 c-0.7-0.7-1.7-1.3-3-1.8c-1.3-0.5-2.7-0.7-4.2-0.7c-5.7,0-8.6,4.3-8.6,12.8c0,4,0.9,7.3,2.6,10.1c1.8,2.7,4.2,4.1,7.5,4.1 c2.4,0,4.4-0.9,6.1-2.6c0.4-0.4,0.8-1,1.1-1.7c0.3-0.7,0.6-1.3,0.8-1.8c0.2-0.5,0.3-0.7,0.3-0.7C45.1,46.3,45.8,46.5,45.9,46.8z "></path> </g> <g> <path class="st6" d="M45.9,47.1c0,0.4-0.2,1.7-0.7,3.7c-0.5,2-0.9,3.1-1.2,3.3c-3.6,1.3-7.2,2-10.8,2c-4.2,0-7.8-1.6-10.8-4.7 c-3-3.1-4.5-6.8-4.5-11.1c0-4.5,1.5-8.4,4.5-11.7c3-3.2,6.8-4.9,11.3-4.9c3.5,0,7.1,0.5,11,1.4c0.2,0,0.4,1.1,0.6,3.2 c0.2,2.1,0.4,3.4,0.4,3.9c0,0.5-0.4,0.7-1.3,0.7c0,0-0.3,0-0.8-0.1c-0.2-0.6-0.4-1.2-0.8-1.8c-0.4-0.6-0.9-1.3-1.6-2.1 c-0.7-0.7-1.7-1.3-3-1.8c-1.3-0.5-2.7-0.7-4.2-0.7c-5.7,0-8.6,4.3-8.6,12.8c0,4,0.9,7.3,2.6,10.1c1.8,2.7,4.2,4.1,7.5,4.1 c2.4,0,4.4-0.9,6.1-2.6c0.4-0.4,0.8-1,1.1-1.7s0.6-1.3,0.8-1.8c0.2-0.5,0.3-0.7,0.3-0.7C45.1,46.7,45.8,46.8,45.9,47.1z"></path> </g> <g> <path d="M45.9,46c0,0.4-0.2,1.7-0.7,3.7c-0.5,2-0.9,3.1-1.2,3.3c-3.6,1.3-7.2,2-10.8,2c-4.2,0-7.8-1.6-10.8-4.7 c-3-3.1-4.5-6.8-4.5-11.1c0-4.5,1.5-8.4,4.5-11.7c3-3.2,6.8-4.9,11.3-4.9c3.5,0,7.1,0.5,11,1.4c0.2,0,0.4,1.1,0.6,3.2 c0.2,2.1,0.4,3.4,0.4,3.9c0,0.5-0.4,0.7-1.3,0.7c0,0-0.3,0-0.8-0.1c-0.2-0.6-0.4-1.2-0.8-1.8c-0.4-0.6-0.9-1.3-1.6-2.1 c-0.7-0.7-1.7-1.3-3-1.8c-1.3-0.5-2.7-0.7-4.2-0.7c-5.7,0-8.6,4.3-8.6,12.8c0,4,0.9,7.3,2.6,10.1c1.8,2.7,4.2,4.1,7.5,4.1 c2.4,0,4.4-0.9,6.1-2.6c0.4-0.4,0.8-1,1.1-1.7c0.3-0.7,0.6-1.3,0.8-1.8c0.2-0.5,0.3-0.7,0.3-0.7C45.1,45.6,45.8,45.7,45.9,46z"></path> </g> <g> <radialGradient id="SVGID_5_" cx="31.8802" cy="39.5968" r="15.1091" gradientUnits="userSpaceOnUse"> <stop offset="0" style="stop-color:#E8E6E3"></stop> <stop offset="0" style="stop-color:#E2DEDC"></stop> <stop offset="0.349" style="stop-color:#ECECEB"></stop> <stop offset="0.5225" style="stop-color:#F3F4F4"></stop> <stop offset="0.8117" style="stop-color:#E4E5E6"></stop> <stop offset="1" style="stop-color:#D8D9DA"></stop> <stop offset="1" style="stop-color:#B5B5B7"></stop> </radialGradient> <path class="st7" d="M45.9,46.8c0,0.4-0.2,1.7-0.7,3.7c-0.5,2-0.9,3.1-1.2,3.3c-3.6,1.3-7.2,2-10.8,2c-4.2,0-7.8-1.6-10.8-4.7 c-3-3.1-4.5-6.8-4.5-11.1c0-4.5,1.5-8.4,4.5-11.7c3-3.2,6.8-4.9,11.3-4.9c3.5,0,7.1,0.5,11,1.4c0.2,0,0.4,1.1,0.6,3.2 c0.2,2.1,0.4,3.4,0.4,3.9c0,0.5-0.4,0.7-1.3,0.7c0,0-0.3,0-0.8-0.1c-0.2-0.6-0.4-1.2-0.8-1.8c-0.4-0.6-0.9-1.3-1.6-2.1 c-0.7-0.7-1.7-1.3-3-1.8c-1.3-0.5-2.7-0.7-4.2-0.7c-5.7,0-8.6,4.3-8.6,12.8c0,4,0.9,7.3,2.6,10.1c1.8,2.7,4.2,4.1,7.5,4.1 c2.4,0,4.4-0.9,6.1-2.6c0.4-0.4,0.8-1,1.1-1.7c0.3-0.7,0.6-1.3,0.8-1.8c0.2-0.5,0.3-0.7,0.3-0.7C45.1,46.3,45.8,46.5,45.9,46.8z "></path> </g> </g> <g> <path class="st3" d="M32.4,89.4c-0.4,0-0.8-0.1-1.2-0.4c-6.6-4.6-12.4-10.3-17.1-16.9C11.3,68,8.8,63.6,6.9,59 c-2.6-6.2-4.4-12.9-5.4-19.9c-0.9-6.3-1-12.7-1.2-18.9c-0.1-2.5-0.1-5.1-0.2-7.7c0-0.3,0-0.6,0-0.9L0,9.6l2,0 c0.1,0,15.1-0.3,28.3-8.9L31.4,0l1.1,0.8C32.6,0.8,42.9,8,61.7,8.7l2,0.1v1.9c0,2.7-0.1,5.4,0,8c0.2,8.8,0.3,18-1.5,26.9 C60.7,52.9,57.9,60,54,66.9c-3.9,6.7-8.7,12.6-14.4,17.5l-0.2,0.2C34.3,89,33.3,89.4,32.4,89.4z M4,13.3c0.1,2.3,0.1,4.6,0.2,6.8 c0.1,6.1,0.3,12.4,1.1,18.5c0.9,6.7,2.6,13,5.1,18.9c1.8,4.4,4.1,8.5,6.9,12.4c4.2,5.9,9.4,11.1,15.2,15.3 c0.7-0.5,1.9-1.5,4.3-3.6l0.2-0.2c5.3-4.6,9.9-10.2,13.6-16.5c3.8-6.5,6.3-13.2,7.7-20.1c1.7-8.6,1.5-17.5,1.3-26.1 c0-2.1-0.1-4.2-0.1-6.3C44,11.6,34.4,6.5,31.3,4.6C20.2,11.4,8.6,13,4,13.3z"></path> </g> </g> <g> <g> <g> <path class="st3" d="M116.8,47.5c0.6,0,1.3,0.2,2,0.5c0,0.4-0.3,2-0.8,4.6c-0.6,2.6-1,4-1.2,4.1c-2.9,1.8-7.7,2.7-14.4,2.7 c-5.3,0-9.8-2-13.6-5.9c-3.7-3.9-5.6-8.6-5.6-14.2c0-5.6,1.9-10.4,5.7-14.5c3.8-4.1,8.5-6.1,14.1-6.1c4.7,0,9.6,0.5,14.7,1.5 c-0.1,5.4-0.1,8.3-0.1,8.7c0,0.6-0.4,0.9-1.3,0.9c-0.4,0-0.7-0.1-0.8-0.3c-0.6-2.5-1.8-4.5-3.7-5.9c-0.8-0.6-2-1.2-3.5-1.7 c-1.5-0.5-3.2-0.7-5.1-0.7c-3.9,0-7.3,1.7-10.1,5.2c-2.8,3.5-4.2,7.4-4.2,11.8c0,7.1,2.4,12.3,7.1,15.8c2.4,1.8,5.5,2.7,9.1,2.7 c3.7,0,6.6-1.2,8.8-3.5c0.8-0.9,1.6-2.6,2.4-4.9C116.5,47.9,116.7,47.5,116.8,47.5z"></path> <path class="st3" d="M138.8,19.1l0.5,0.2l12.1,31.9c0.7,1.9,1.3,3.2,1.6,4c0.3,0.8,1,1.4,2,1.8c1,0.4,1.8,0.6,2.2,0.6 c0.2,0,0.2,0.2,0.2,0.7c0,0.5,0,0.8-0.1,1.1c-4-0.2-6.1-0.3-6.4-0.3c-0.2,0-2.6,0.1-7.3,0.3c-0.2-0.2-0.2-0.5-0.2-1 c0-0.5,0.1-0.8,0.3-0.8c0.5,0,1.1-0.1,1.8-0.3c0.7-0.2,1.1-0.5,1.3-0.8c0.1-0.3,0.1-0.7,0.1-1.1c0-1-0.2-2.1-0.6-3.4l-2.7-7.5 c-0.2-0.3-1.6-0.4-4.2-0.4c-2.6,0-5.4,0.1-8.4,0.3l-0.3,0.2l-2.6,6.6c-0.7,2-1,3.4-1,4c0,0.7,0.2,1.1,0.5,1.4 c0.3,0.3,0.9,0.5,1.7,0.7c0.8,0.2,1.4,0.3,1.8,0.3c0.1,0,0.2,0.2,0.2,0.7c0,0.5,0,0.8-0.1,1c-4-0.2-6.3-0.3-6.7-0.3 c-0.5,0-1,0-1.6,0.1c-0.6,0-1.3,0.1-2,0.1l-2.2,0.1c-0.2-0.2-0.2-0.5-0.2-1c0-0.5,0.1-0.8,0.2-0.8c0.5,0,1.1-0.1,1.9-0.3 c0.8-0.2,1.3-0.5,1.6-0.8c0.8-1.1,1.8-3,2.8-5.7l10.5-27c0.1-0.2,0.2-0.5,0.3-1c0.1-0.4,0.3-0.8,0.3-1c0.1-0.2,0.2-0.5,0.4-0.8 c0.2-0.3,0.3-0.6,0.4-0.8c0.1-0.2,0.3-0.3,0.5-0.5C137.8,19.3,138.2,19.1,138.8,19.1z M132.3,41.1c2.1,0.1,3.8,0.1,5,0.1 c1.3,0,2.8-0.1,4.7-0.2l0.2-0.3l-4.9-13.3l-5.2,13.5C132.2,41,132.2,41.1,132.3,41.1z"></path> <path class="st3" d="M160.2,19.2c3.1,0.2,5.3,0.4,6.6,0.4c1.2,0,2.3,0,3-0.1c0.8,0,1.6-0.1,2.5-0.2l2.2-0.1 c0.1,0.2,0.1,0.6,0.1,1.1c0,0.5-0.1,0.7-0.2,0.7c-0.4,0-1.1,0.1-2.2,0.4c-1,0.3-1.6,0.6-1.7,0.8c-0.4,1.4-0.5,3.3-0.5,5.6v22.8 c0,2.1,0.2,3.9,0.5,5.3c0.1,0.4,1.5,0.6,4.1,0.6h2.9c3.7,0,6.3-0.3,7.6-1c0.6-0.3,1.3-1,2-2.1c0.7-1.1,1.3-2.4,1.8-4 c0.1-0.2,0.4-0.4,1.1-0.4c0.6,0,1.1,0.1,1.3,0.4c-2,5.4-3.1,8.7-3.3,10L167.3,59l-7.3,0.2c-0.1-0.1-0.2-0.4-0.2-1 c0-0.5,0.1-0.8,0.2-0.8c0.6,0,1.3-0.1,2.4-0.4c1-0.2,1.6-0.6,1.9-1c0.2-0.4,0.4-2.3,0.4-5.6V27.7c0-2.6-0.1-4.4-0.4-5.5 c-0.1-0.3-0.7-0.6-1.7-0.9c-1-0.3-1.8-0.4-2.3-0.4c-0.2,0-0.2-0.3-0.2-0.8C159.9,19.7,160,19.3,160.2,19.2z"></path> <path class="st3" d="M197,19.5l10.5-0.1c6.6,0,11.7,1.9,15.3,5.8c3.7,3.9,5.5,8.6,5.5,14.1c0,5.5-1.9,10.3-5.6,14.2 c-3.7,3.9-8.8,5.9-15.3,5.9c-0.5,0-1.9,0-4.3-0.1c-2.4-0.1-4.4-0.1-6-0.1l-7.3,0.2c-0.1-0.1-0.2-0.4-0.2-1 c0-0.5,0.1-0.8,0.2-0.8c0.5,0,1.3-0.1,2.3-0.4c1-0.3,1.7-0.6,1.9-1.1c0.2-0.4,0.4-2.3,0.4-5.6V27.7c0-2.4-0.1-4.1-0.4-5.2 c-0.1-0.3-0.7-0.6-1.8-0.9c-1.1-0.3-1.9-0.4-2.4-0.4c-0.2,0-0.2-0.3-0.2-0.8c0-0.5,0.1-0.8,0.2-1C192,19.5,194.4,19.5,197,19.5z M199.7,26.8v23.9c0,1.7,0.3,3.2,0.9,4.6c0.2,0.4,1.2,0.7,3.2,0.9c2,0.2,3.5,0.3,4.6,0.3c9.3,0,13.9-6,13.9-17.9 c0-4.6-1.2-8.5-3.7-11.7c-2.4-3.2-6-4.8-10.7-4.8h-0.3c-4.3,0-6.8,0.3-7.3,1C200,23.8,199.7,25,199.7,26.8z"></path> <path class="st3" d="M258.9,26.6c0.6-1.4,0.8-2.5,0.8-3.3c0-0.8-0.4-1.4-1.1-1.8c-0.8-0.4-1.4-0.6-2.1-0.6 c-0.2,0-0.2-0.3-0.2-0.8c0-0.5,0.1-0.8,0.2-1c3.2,0.2,5.1,0.3,5.8,0.3c0.6,0,2.9-0.1,7-0.3c0.1,0.2,0.1,0.5,0.1,1 c0,0.5-0.1,0.8-0.2,0.8c-0.4,0-1.2,0.2-2.3,0.5c-1.1,0.3-1.9,0.7-2.3,1.2c-0.9,1.1-2.1,3.2-3.5,6.2l-4.2,9.4 c-0.1,0.2,0,0.4,0.1,0.7l6,12.9c0.1,0.2,0.3,0.3,0.5,0.2c0.2-0.1,0.4-0.3,0.5-0.5l10.4-24.7c0.6-1.4,0.9-2.5,0.9-3.2 c0-0.7-0.2-1.3-0.7-1.7c-0.6-0.6-1.4-0.9-2.4-0.9c-0.2,0-0.2-0.3-0.2-0.8c0-0.5,0.1-0.8,0.2-1c3.2,0.2,5.3,0.3,6.2,0.3 c0.9,0,1.7,0,2.3-0.1l1.9-0.1c0.6,0,1.2-0.1,1.8-0.1c0.1,0.2,0.1,0.6,0.1,1.1c0,0.5-0.1,0.7-0.2,0.7c-0.4,0-1,0.2-1.9,0.5 c-0.9,0.3-1.5,0.7-2,1.2c-1,1.2-2.2,3.3-3.4,6.2l-12.9,28.9c-0.6,1.3-1.3,1.9-2.4,1.9c-0.2,0-0.4-0.1-0.5-0.3l-7.5-15.9 l-6.3,14.2c-0.6,1.3-1.4,1.9-2.4,1.9c-0.2,0-0.4-0.1-0.5-0.3l-15.7-31.2c-1.2-2.4-2.3-4.3-3.5-5.8c-0.3-0.4-0.8-0.7-1.4-1 c-0.6-0.3-1.2-0.4-1.6-0.4c-0.2,0-0.2-0.3-0.2-0.8c0-0.5,0.1-0.8,0.2-1c4.6,0.2,7.1,0.3,7.4,0.3c0.3,0,2.5-0.1,6.5-0.3 c0.1,0.2,0.1,0.5,0.1,1c0,0.5-0.1,0.8-0.2,0.8c-2.2,0-3.3,0.4-3.4,1.2c0,0.2-0.1,0.5-0.1,0.8c0,1,0.5,2.5,1.4,4.2l12.7,24.5 c0.1,0.2,0.3,0.3,0.5,0.2c0.2-0.1,0.3-0.3,0.4-0.5l4.4-10.7c0.2-0.3,0.2-0.6,0.1-0.7l-6-11.8c-1.3-2.6-2.5-4.5-3.5-5.8 c-0.3-0.4-0.8-0.7-1.4-1c-0.6-0.3-1.2-0.4-1.6-0.4c-0.2,0-0.2-0.3-0.2-0.8c0-0.5,0.1-0.8,0.2-1c4.6,0.2,7.1,0.3,7.4,0.3 c0.3,0,2.5-0.1,6.5-0.3c0.1,0.2,0.1,0.5,0.1,1c0,0.5-0.1,0.8-0.2,0.8c-2.1,0-3.3,0.4-3.4,1.2c0,0.2-0.1,0.6-0.1,1.3 c0,0.7,0.5,1.9,1.4,3.7l4.2,8L258.9,26.6z"></path> <path class="st3" d="M314.7,59.4l-20.6-0.2l-7.3,0.2c-0.1-0.1-0.2-0.4-0.2-1c0-0.5,0.1-0.8,0.2-0.8c0.5,0,1.3-0.1,2.3-0.4 c1-0.3,1.7-0.6,1.9-1.1c0.2-0.4,0.4-2.3,0.4-5.6V27.7c0-2.4-0.1-4.1-0.4-5.2c-0.1-0.3-0.7-0.6-1.8-0.9c-1.1-0.3-1.9-0.4-2.4-0.4 c-0.2,0-0.2-0.3-0.2-0.8c0-0.5,0.1-0.8,0.2-1c2.1,0.1,4.5,0.1,7.2,0.1l19.5-0.5c0.2,1.2,0.5,2.7,0.9,4.6 c0.5,1.9,0.7,3.1,0.8,3.6c-0.2,0.2-0.6,0.3-1.1,0.3c-0.5,0-0.8-0.1-0.8-0.4c-0.6-2.2-1.4-3.6-2.5-4.3c-1.1-0.6-2.6-0.9-4.5-0.9 h-4c-3.5,0-5.2,0.3-5.3,0.8c-0.2,1-0.3,2.7-0.3,5.1v9.7c0,0.2,0.9,0.4,2.6,0.4c1.9,0,3.4,0,4.6,0c1.2,0,2.1-0.1,2.6-0.2 c0.6-0.2,0.9-0.3,1.1-0.3c0.2,0,0.4-0.3,0.6-0.8c0.3-0.5,0.4-0.8,0.5-1.1c0-0.2,0.2-0.8,0.4-1.7c0-0.3,0.3-0.4,0.8-0.4 c0.5,0,0.9,0.1,1.1,0.3V45c-0.2,0.2-0.5,0.2-1,0.2s-0.8-0.2-0.9-0.5c-0.5-2-0.9-3.1-1.1-3.3c-0.2-0.2-0.5-0.4-0.8-0.6 c-0.4-0.2-2.2-0.4-5.6-0.4c-3.3,0-5,0.2-5,0.5v9.4c0,2.6,0.2,4.4,0.5,5.5c0.1,0.4,1.5,0.6,4.1,0.6h2.9c3.7,0,6.3-0.3,7.6-1 c0.6-0.3,1.3-1,2-2.1c0.7-1.1,1.3-2.4,1.8-4c0-0.2,0.4-0.4,1-0.4c0.6,0,1.1,0.1,1.3,0.4C315.9,54.7,314.8,58,314.7,59.4z"></path> <path class="st3" d="M317.9,19.2c3.1,0.2,5.3,0.4,6.6,0.4c1.2,0,2.3,0,3-0.1c0.8,0,1.6-0.1,2.5-0.2l2.2-0.1 c0.1,0.2,0.1,0.6,0.1,1.1c0,0.5-0.1,0.7-0.2,0.7c-0.4,0-1.1,0.1-2.2,0.4c-1,0.3-1.6,0.6-1.7,0.8c-0.4,1.4-0.5,3.3-0.5,5.6v22.8 c0,2.1,0.2,3.9,0.5,5.3c0.1,0.4,1.5,0.6,4.1,0.6h2.9c3.7,0,6.3-0.3,7.6-1c0.6-0.3,1.3-1,2-2.1c0.7-1.1,1.3-2.4,1.8-4 c0.1-0.2,0.4-0.4,1.1-0.4c0.6,0,1.1,0.1,1.3,0.4c-2,5.4-3.1,8.7-3.3,10L325,59l-7.3,0.2c-0.1-0.1-0.2-0.4-0.2-1 c0-0.5,0.1-0.8,0.2-0.8c0.6,0,1.3-0.1,2.4-0.4c1-0.2,1.6-0.6,1.9-1c0.2-0.4,0.4-2.3,0.4-5.6V27.7c0-2.6-0.1-4.4-0.4-5.5 c-0.1-0.3-0.7-0.6-1.7-0.9c-1-0.3-1.8-0.4-2.3-0.4c-0.2,0-0.2-0.3-0.2-0.8C317.6,19.7,317.7,19.3,317.9,19.2z"></path> <path class="st3" d="M348.9,19.2c3.1,0.2,5.3,0.4,6.6,0.4c1.2,0,2.3,0,3-0.1c0.8,0,1.6-0.1,2.5-0.2l2.2-0.1 c0.1,0.2,0.1,0.6,0.1,1.1c0,0.5-0.1,0.7-0.2,0.7c-0.4,0-1.1,0.1-2.2,0.4c-1,0.3-1.6,0.6-1.7,0.8c-0.4,1.4-0.5,3.3-0.5,5.6v22.8 c0,2.1,0.2,3.9,0.5,5.3c0.1,0.4,1.5,0.6,4.1,0.6h2.9c3.7,0,6.3-0.3,7.6-1c0.6-0.3,1.3-1,2-2.1c0.7-1.1,1.3-2.4,1.8-4 c0.1-0.2,0.4-0.4,1.1-0.4s1.1,0.1,1.3,0.4c-2,5.4-3.1,8.7-3.3,10L356,59l-7.3,0.2c-0.1-0.1-0.2-0.4-0.2-1c0-0.5,0.1-0.8,0.2-0.8 c0.6,0,1.3-0.1,2.4-0.4c1-0.2,1.6-0.6,1.9-1c0.2-0.4,0.4-2.3,0.4-5.6V27.7c0-2.6-0.1-4.4-0.4-5.5c-0.1-0.3-0.7-0.6-1.7-0.9 c-1-0.3-1.8-0.4-2.3-0.4c-0.2,0-0.2-0.3-0.2-0.8C348.6,19.7,348.7,19.3,348.9,19.2z"></path> </g> </g> <g> <g> <path class="st3" d="M88.1,66.3c1,0.1,1.7,0.1,2.1,0.1c0.4,0,0.7,0,1,0c0.2,0,0.5,0,0.8-0.1l0.7,0c0,0.1,0,0.2,0,0.4 s0,0.2-0.1,0.2c-0.1,0-0.4,0-0.7,0.1c-0.3,0.1-0.5,0.2-0.5,0.3c-0.1,0.5-0.2,1.1-0.2,1.9v7.6c0,0.7,0.1,1.3,0.2,1.8 c0,0.1,0.5,0.2,1.3,0.2h0.9c1.2,0,2-0.1,2.4-0.3c0.2-0.1,0.4-0.3,0.7-0.7c0.2-0.4,0.4-0.8,0.6-1.3c0-0.1,0.1-0.1,0.3-0.1 c0.2,0,0.3,0,0.4,0.1c-0.6,1.8-1,2.9-1,3.4l-6.6-0.1L88,79.7c0,0-0.1-0.1-0.1-0.3c0-0.2,0-0.3,0.1-0.3c0.2,0,0.4,0,0.8-0.1 c0.3-0.1,0.5-0.2,0.6-0.3c0.1-0.1,0.1-0.8,0.1-1.9v-7.6c0-0.9,0-1.5-0.1-1.8c0-0.1-0.2-0.2-0.6-0.3c-0.3-0.1-0.6-0.1-0.7-0.1 c-0.1,0-0.1-0.1-0.1-0.3C88,66.4,88,66.3,88.1,66.3z"></path> <path class="st3" d="M123.6,66.2l0.2,0.1l3.9,10.7c0.2,0.6,0.4,1.1,0.5,1.4c0.1,0.3,0.3,0.5,0.7,0.6c0.3,0.1,0.6,0.2,0.7,0.2 c0.1,0,0.1,0.1,0.1,0.2c0,0.2,0,0.3,0,0.4c-1.3-0.1-2-0.1-2-0.1c-0.1,0-0.9,0-2.3,0.1c-0.1-0.1-0.1-0.2-0.1-0.3s0-0.3,0.1-0.3 c0.2,0,0.3,0,0.6-0.1c0.2-0.1,0.4-0.2,0.4-0.3c0-0.1,0-0.2,0-0.4c0-0.3-0.1-0.7-0.2-1.1l-0.9-2.5c-0.1-0.1-0.5-0.1-1.4-0.1 s-1.7,0-2.7,0.1l-0.1,0.1l-0.8,2.2c-0.2,0.7-0.3,1.1-0.3,1.3c0,0.2,0.1,0.4,0.2,0.5c0.1,0.1,0.3,0.2,0.6,0.2 c0.3,0.1,0.4,0.1,0.6,0.1c0,0,0.1,0.1,0.1,0.2c0,0.2,0,0.3,0,0.3c-1.3-0.1-2-0.1-2.2-0.1c-0.1,0-0.3,0-0.5,0c-0.2,0-0.4,0-0.6,0 l-0.7,0c-0.1-0.1-0.1-0.2-0.1-0.3s0-0.3,0.1-0.3c0.2,0,0.4,0,0.6-0.1c0.2-0.1,0.4-0.2,0.5-0.3c0.3-0.4,0.6-1,0.9-1.9l3.4-9 c0-0.1,0.1-0.2,0.1-0.3c0-0.1,0.1-0.3,0.1-0.3c0-0.1,0.1-0.2,0.1-0.3c0.1-0.1,0.1-0.2,0.1-0.3c0-0.1,0.1-0.1,0.2-0.2 C123.3,66.3,123.4,66.2,123.6,66.2z M121.5,73.6c0.7,0,1.2,0,1.6,0c0.4,0,0.9,0,1.5-0.1l0.1-0.1l-1.6-4.5L121.5,73.6 C121.5,73.6,121.5,73.6,121.5,73.6z"></path> <path class="st3" d="M160.6,68.8c0.2-0.5,0.3-0.8,0.3-1.1c0-0.3-0.1-0.5-0.4-0.6c-0.2-0.1-0.5-0.2-0.7-0.2 c-0.1,0-0.1-0.1-0.1-0.3c0-0.2,0-0.3,0.1-0.3c1,0.1,1.7,0.1,1.9,0.1c0.2,0,0.9,0,2.2-0.1c0,0.1,0,0.2,0,0.3c0,0.2,0,0.3-0.1,0.3 c-0.1,0-0.4,0.1-0.7,0.2c-0.4,0.1-0.6,0.2-0.7,0.4c-0.3,0.4-0.7,1.1-1.1,2.1l-1.4,3.1c0,0.1,0,0.1,0,0.2l1.9,4.3 c0,0.1,0.1,0.1,0.2,0.1c0.1,0,0.1-0.1,0.1-0.2l3.3-8.3c0.2-0.5,0.3-0.8,0.3-1.1c0-0.2-0.1-0.4-0.2-0.6c-0.2-0.2-0.5-0.3-0.8-0.3 c-0.1,0-0.1-0.1-0.1-0.3c0-0.2,0-0.3,0.1-0.3c1,0.1,1.7,0.1,2,0.1c0.3,0,0.5,0,0.7,0l0.6,0c0.2,0,0.4,0,0.6,0c0,0.1,0,0.2,0,0.4 s0,0.2-0.1,0.2c-0.1,0-0.3,0.1-0.6,0.2c-0.3,0.1-0.5,0.2-0.6,0.4c-0.3,0.4-0.7,1.1-1.1,2.1l-4.1,9.7c-0.2,0.4-0.4,0.6-0.8,0.6 c-0.1,0-0.1,0-0.2-0.1l-2.4-5.3l-2,4.8c-0.2,0.4-0.4,0.6-0.8,0.6c-0.1,0-0.1,0-0.2-0.1l-5.1-10.5c-0.4-0.8-0.8-1.4-1.1-1.9 c-0.1-0.1-0.3-0.2-0.5-0.3c-0.2-0.1-0.4-0.1-0.5-0.1c-0.1,0-0.1-0.1-0.1-0.3c0-0.2,0-0.3,0.1-0.3c1.5,0.1,2.3,0.1,2.4,0.1 c0.1,0,0.8,0,2.1-0.1c0,0.1,0,0.2,0,0.3c0,0.2,0,0.3-0.1,0.3c-0.7,0-1.1,0.1-1.1,0.4c0,0.1,0,0.2,0,0.3c0,0.4,0.1,0.8,0.4,1.4 l4.1,8.2c0,0.1,0.1,0.1,0.2,0.1c0.1,0,0.1-0.1,0.1-0.2l1.4-3.6c0.1-0.1,0.1-0.2,0-0.2l-1.9-4c-0.4-0.9-0.8-1.5-1.1-1.9 c-0.1-0.1-0.3-0.2-0.5-0.3c-0.2-0.1-0.4-0.1-0.5-0.1c-0.1,0-0.1-0.1-0.1-0.3c0-0.2,0-0.3,0.1-0.3c1.5,0.1,2.3,0.1,2.4,0.1 c0.1,0,0.8,0,2.1-0.1c0,0.1,0,0.2,0,0.3c0,0.2,0,0.3-0.1,0.3c-0.7,0-1,0.1-1.1,0.4c0,0.1,0,0.2,0,0.4c0,0.2,0.1,0.6,0.4,1.2 l1.3,2.7L160.6,68.8z"></path> <path class="st3" d="M210,75.9l0.1,1.5c0,0.2,0,0.5,0.1,0.7c0.1,0.2,0.1,0.4,0.1,0.4c0,0.1-0.2,0.3-0.6,0.4 c-0.4,0.2-0.6,0.2-0.7,0.3c-0.1,0-0.2,0.1-0.4,0.2c-0.2,0.1-0.4,0.1-0.6,0.2l-0.6,0.1c-0.6,0.1-1.4,0.2-2.5,0.2 c-1.7,0-3.2-0.7-4.4-2c-1.2-1.3-1.8-2.9-1.8-4.8c0-1.9,0.6-3.5,1.8-4.8c1.2-1.4,2.7-2.1,4.5-2.1c0.9,0,2.5,0.3,4.6,0.9 c0.1,1.5,0.1,2.4,0.1,2.5c0,0.2-0.1,0.3-0.4,0.3c-0.1,0-0.2,0-0.3-0.1c-0.3-1.8-1.7-2.8-4-2.8c-1.3,0-2.4,0.6-3.2,1.7 c-0.9,1.1-1.3,2.5-1.3,4.1s0.5,3,1.4,4.2c1,1.3,2.1,1.9,3.6,1.9c1.1,0,2-0.1,2.5-0.4c0.1,0,0.1-0.1,0.1-0.3l0-1.7v-0.1 c0-0.9-0.1-1.5-0.2-1.7c-0.1-0.1-0.3-0.2-0.6-0.3c-0.4-0.1-0.7-0.1-0.9-0.1c-0.1,0-0.1-0.1-0.1-0.3c0-0.2,0-0.3,0.1-0.3 c1.6,0.1,2.5,0.1,2.6,0.1c0.1,0,0.8,0,2.1-0.1c0,0.1,0,0.2,0,0.4c0,0.2,0,0.2-0.1,0.2c-0.1,0-0.3,0-0.5,0.1 c-0.3,0.1-0.5,0.2-0.6,0.3C210.1,74.6,210,75.1,210,75.9z"></path> <path class="st3" d="M232.8,66.4l2.7-0.1c0.9,0,1.8,0.3,2.7,0.8c0.5,0.3,0.8,0.7,1.1,1.2c0.3,0.5,0.4,1.1,0.4,1.7 s-0.2,1.2-0.6,1.9c-0.4,0.6-1,1.1-1.7,1.4c-0.1,0.1-0.2,0.1-0.1,0.2c0.6,1.4,1.4,2.6,2.2,3.6c1.2,1.4,2.3,2.1,3,2.1 c0,0.1,0.1,0.2,0.1,0.3c0,0.1,0,0.2-0.1,0.3c-0.1,0-0.3,0.1-0.5,0.1c-1.8,0-3.4-1-4.7-2.9l-1.3-2c-0.4-0.5-0.6-0.9-0.8-1 c-0.2-0.1-0.3-0.2-0.5-0.3c-0.1-0.1-0.3-0.1-0.5-0.1c-0.2,0-0.4,0-0.4,0c-0.2,0-0.2,0.1-0.2,0.3v3c0,0.9,0,1.5,0.1,1.7 c0.1,0.2,0.3,0.4,0.7,0.5c0.4,0.1,0.7,0.2,0.8,0.2c0,0,0.1,0.1,0.1,0.2c0,0.2,0,0.3,0,0.3c-1.3-0.1-2.1-0.1-2.5-0.1l-2.4,0.1 c0,0-0.1-0.2-0.1-0.3c0-0.2,0-0.3,0.1-0.3c0.2,0,0.4,0,0.8-0.1c0.3-0.1,0.5-0.2,0.6-0.3c0.1-0.1,0.1-0.8,0.1-1.9v-7.6 c0-0.8,0-1.4-0.1-1.7c0-0.1-0.2-0.2-0.6-0.3c-0.3-0.1-0.6-0.1-0.8-0.1c-0.1,0-0.1-0.1-0.1-0.3s0-0.3,0.1-0.3L232.8,66.4z M235.8,72.6c0.5,0,0.9-0.2,1.4-0.7c0.5-0.5,0.7-1.1,0.7-1.9c0-1.8-0.9-2.7-2.8-2.7c-0.6,0-1.1,0-1.4,0.1 c-0.1,0-0.1,0.1-0.1,0.2c-0.1,0.7-0.1,1.4-0.1,2V72c0,0.4,0.6,0.6,1.7,0.6H235.8z"></path> <path class="st3" d="M263.6,77.8c-1.2-1.3-1.8-2.9-1.8-4.8c0-1.9,0.6-3.5,1.8-4.8c1.2-1.3,2.7-2,4.4-2c1.7,0,3.2,0.7,4.4,2 c1.2,1.3,1.8,3,1.8,4.8c0,1.9-0.6,3.5-1.8,4.8c-1.2,1.3-2.7,2-4.4,2C266.3,79.8,264.8,79.2,263.6,77.8z M267.7,67 c-1.2,0-2.2,0.6-2.9,1.7c-0.7,1.1-1.1,2.4-1.1,3.9c0,1.1,0.2,2.1,0.5,3.1c0.3,1,0.9,1.8,1.6,2.4c0.7,0.6,1.5,1,2.4,1 c0.9,0,1.7-0.3,2.3-0.8c1.2-1.1,1.8-2.7,1.8-4.8c0-1.1-0.2-2.1-0.5-3c-0.3-1-0.9-1.7-1.6-2.4C269.5,67.3,268.6,67,267.7,67z"></path> <path class="st3" d="M303.9,66.4l2.2-0.1c0,0.1,0,0.2,0,0.3c0,0.1,0,0.2-0.1,0.2c-0.1,0-0.4,0.1-0.8,0.2 c-0.4,0.1-0.7,0.2-0.7,0.3c-0.1,0.4-0.2,1-0.2,1.9v4.9c0,2.1-0.4,3.5-1.3,4.4c-0.8,0.8-2,1.2-3.6,1.2s-2.7-0.5-3.6-1.4 c-0.8-0.9-1.2-2.5-1.2-4.6v-4.6c0-0.8,0-1.4-0.1-1.8c0-0.1-0.2-0.2-0.6-0.3s-0.6-0.1-0.7-0.1c-0.1,0-0.1-0.1-0.1-0.3 c0-0.2,0-0.3,0.1-0.3c1.5,0.1,2.3,0.1,2.4,0.1c0.1,0,0.9,0,2.1-0.1c0,0.1,0,0.2,0,0.4s0,0.2-0.1,0.2c-0.1,0-0.4,0-0.7,0.1 c-0.3,0.1-0.5,0.2-0.5,0.3c-0.1,0.5-0.2,1.1-0.2,1.9v4.5c0,1.5,0.3,2.7,0.9,3.6c0.6,0.9,1.5,1.4,2.6,1.4c2.2,0,3.3-1.5,3.3-4.6 V69c0-0.8,0-1.4-0.1-1.8c0-0.1-0.3-0.2-0.7-0.3c-0.4-0.1-0.7-0.2-0.9-0.2c-0.1,0-0.1-0.1-0.1-0.2c0-0.2,0-0.3,0.1-0.3 C302.6,66.3,303.4,66.4,303.9,66.4z"></path> <path class="st3" d="M327.5,66.4l2.7-0.1c0.9,0,1.8,0.3,2.7,0.9c0.4,0.3,0.8,0.7,1.1,1.2c0.3,0.5,0.4,1,0.4,1.6 c0,0.5-0.1,1-0.3,1.5c-0.2,0.4-0.4,0.9-0.8,1.3c-0.3,0.4-0.8,0.8-1.4,1.1c-0.6,0.3-1.2,0.4-1.9,0.4c-0.7,0-1.2,0-1.7-0.1 c-0.1,0-0.2,0.1-0.2,0.2v2.4c0,0.9,0,1.5,0.1,1.7c0.1,0.2,0.3,0.4,0.7,0.5c0.4,0.1,0.7,0.2,0.8,0.2c0,0,0.1,0.1,0.1,0.2 c0,0.2,0,0.3,0,0.3c-1.3-0.1-2.1-0.1-2.5-0.1l-2.4,0.1c0,0-0.1-0.2-0.1-0.3c0-0.2,0-0.3,0.1-0.3c0.2,0,0.4,0,0.8-0.1 c0.3-0.1,0.5-0.2,0.6-0.3c0.1-0.1,0.1-0.8,0.1-1.9v-7.6c0-0.8,0-1.4-0.1-1.7c0-0.1-0.2-0.2-0.6-0.3c-0.3-0.1-0.6-0.1-0.8-0.1 c-0.1,0-0.1-0.1-0.1-0.3s0-0.3,0.1-0.3L327.5,66.4z M328.3,69.6v3c0,0.3,0.1,0.5,0.4,0.6c0.2,0.1,0.5,0.2,0.8,0.3 c0.3,0,0.6,0,1,0c0.6,0,1.1-0.3,1.6-0.9c0.4-0.6,0.6-1.3,0.6-2.2c0-0.9-0.2-1.6-0.7-2.3c-0.5-0.6-1.2-1-2-1c-0.6,0-1,0-1.4,0.1 c-0.1,0-0.1,0.1-0.1,0.1C328.4,67.7,328.3,68.4,328.3,69.6z"></path> </g> </g> <g> <path d="M347.3,73.8l1.2,0c0.4,0,0.8,0.1,1.2,0.4c0.2,0.1,0.4,0.3,0.5,0.5c0.1,0.2,0.2,0.5,0.2,0.7c0,0.2,0,0.4-0.1,0.6 c-0.1,0.2-0.2,0.4-0.3,0.6c-0.1,0.2-0.3,0.3-0.6,0.5c-0.3,0.1-0.5,0.2-0.8,0.2c-0.3,0-0.5,0-0.7,0c0,0-0.1,0-0.1,0.1v1.1 c0,0.4,0,0.6,0.1,0.7c0,0.1,0.1,0.2,0.3,0.2c0.2,0,0.3,0.1,0.4,0.1c0,0,0,0,0,0.1c0,0.1,0,0.1,0,0.2c-0.6,0-0.9,0-1.1,0l-1,0 c0,0,0-0.1,0-0.2c0-0.1,0-0.1,0-0.1c0.1,0,0.2,0,0.3-0.1c0.1,0,0.2-0.1,0.3-0.1c0-0.1,0.1-0.3,0.1-0.8V75c0-0.3,0-0.6-0.1-0.8 c0,0-0.1-0.1-0.3-0.1c-0.2,0-0.3-0.1-0.3-0.1c0,0,0,0,0-0.1c0-0.1,0-0.1,0-0.1L347.3,73.8z M347.7,75.2v1.3 c0,0.1,0.1,0.2,0.2,0.3c0.1,0.1,0.2,0.1,0.3,0.1c0.1,0,0.3,0,0.4,0c0.3,0,0.5-0.1,0.7-0.4c0.2-0.3,0.3-0.6,0.3-1s-0.1-0.7-0.3-1 c-0.2-0.3-0.5-0.4-0.9-0.4c-0.3,0-0.5,0-0.6,0.1c0,0,0,0-0.1,0.1C347.7,74.4,347.7,74.7,347.7,75.2z"></path> <path d="M354.4,73.8c0.4,0,0.8,0.1,0.9,0.1s0.3,0,0.4,0c0.1,0,0.2,0,0.3,0l0.3,0c0,0,0,0.1,0,0.2c0,0.1,0,0.1,0,0.1 c-0.1,0-0.2,0-0.3,0.1c-0.1,0-0.2,0.1-0.2,0.1c-0.1,0.2-0.1,0.5-0.1,0.8v3.3c0,0.3,0,0.6,0.1,0.8c0,0.1,0.2,0.1,0.6,0.1h0.4 c0.5,0,0.9-0.1,1.1-0.2c0.1,0,0.2-0.2,0.3-0.3c0.1-0.2,0.2-0.4,0.3-0.6c0,0,0.1-0.1,0.1-0.1s0.1,0,0.2,0.1 c-0.3,0.8-0.4,1.3-0.5,1.5l-2.9-0.1l-1,0c0,0,0-0.1,0-0.1c0-0.1,0-0.1,0-0.1c0.1,0,0.2,0,0.3-0.1c0.1,0,0.2-0.1,0.3-0.1 c0-0.1,0.1-0.3,0.1-0.8V75c0-0.4,0-0.6-0.1-0.8c0,0-0.1-0.1-0.2-0.1c-0.1,0-0.3-0.1-0.3-0.1c0,0,0,0,0-0.1 C354.3,73.8,354.3,73.8,354.4,73.8z"></path> <path d="M362.7,73.8c0.4,0,0.8,0.1,0.9,0.1c0.2,0,0.3,0,0.4,0c0.1,0,0.2,0,0.3,0l0.3,0c0,0,0,0.1,0,0.2c0,0.1,0,0.1,0,0.1 c-0.1,0-0.2,0-0.3,0.1c-0.1,0-0.2,0.1-0.2,0.1c-0.1,0.2-0.1,0.5-0.1,0.8v3.3c0,0.3,0,0.6,0.1,0.8c0,0.1,0.2,0.1,0.6,0.1h0.4 c0.5,0,0.9-0.1,1.1-0.2c0.1,0,0.2-0.2,0.3-0.3c0.1-0.2,0.2-0.4,0.3-0.6c0,0,0.1-0.1,0.1-0.1c0.1,0,0.1,0,0.2,0.1 c-0.3,0.8-0.4,1.3-0.5,1.5l-2.9-0.1l-1,0c0,0,0-0.1,0-0.1c0-0.1,0-0.1,0-0.1c0.1,0,0.2,0,0.3-0.1c0.1,0,0.2-0.1,0.3-0.1 c0-0.1,0.1-0.3,0.1-0.8V75c0-0.4,0-0.6-0.1-0.8c0,0-0.1-0.1-0.2-0.1c-0.1,0-0.3-0.1-0.3-0.1c0,0,0,0,0-0.1 C362.7,73.8,362.7,73.8,362.7,73.8z"></path> <path d="M375.8,77.9c0.1,0,0.2,0,0.3,0.1c0,0.1,0,0.3-0.1,0.7c-0.1,0.4-0.1,0.6-0.2,0.6c-0.4,0.3-1.1,0.4-2,0.4 c-0.7,0-1.4-0.3-1.9-0.9c-0.5-0.6-0.8-1.3-0.8-2.1s0.3-1.5,0.8-2.1c0.5-0.6,1.2-0.9,2-0.9c0.7,0,1.4,0.1,2.1,0.2 c0,0.8,0,1.2,0,1.3c0,0.1-0.1,0.1-0.2,0.1c-0.1,0-0.1,0-0.1,0c-0.1-0.4-0.3-0.7-0.5-0.9c-0.1-0.1-0.3-0.2-0.5-0.2 c-0.2-0.1-0.5-0.1-0.7-0.1c-0.6,0-1,0.3-1.4,0.8c-0.4,0.5-0.6,1.1-0.6,1.7c0,1,0.3,1.8,1,2.3c0.3,0.3,0.8,0.4,1.3,0.4 s0.9-0.2,1.2-0.5c0.1-0.1,0.2-0.4,0.3-0.7C375.8,78,375.8,77.9,375.8,77.9z"></path> </g> </g> </g> </svg> 